#define close_width 13
#define close_height 13
static unsigned char close_bits[] = {
 0xFE, 0x0F, 0xFF, 0x1F, 0xFF, 0x1F, 0xF7, 0x1D, 0xEF, 0x1E, 0x5F, 0x1F,
 0xBF, 0x1F, 0x5F, 0x1F, 0xEF, 0x1E, 0xF7, 0x1D, 0xFF, 0x1F, 0xFF, 0x1F,
 0xFE, 0x0F };
