#define iconify_width 13
#define iconify_height 13
static unsigned char iconify_bits[] = {
 0xFE, 0x0F, 0xFF, 0x1F, 0xFF, 0x1F, 0xFF, 0x1F, 0xFF, 0x1F, 0xFF, 0x1F,
 0xFF, 0x1F, 0xFF, 0x1F, 0xFF, 0x1F, 0x07, 0x1C, 0xFF, 0x1F, 0xFF, 0x1F,
 0xFE, 0x0F };
