#define max_toggled_width 13
#define max_toggled_height 13
static unsigned char max_toggled_bits[] = {
 0xFE, 0x0F, 0xFF, 0x1F, 0xFF, 0x1F, 0x1F, 0x1C, 0xFF, 0x1D, 0x07, 0x1D,
 0x77, 0x1D, 0x77, 0x1D, 0x77, 0x1F, 0x07, 0x1F, 0xFF, 0x1F, 0xFF, 0x1F,
 0xFE, 0x0F };
